<svg xmlns="http://www.w3.org/2000/svg" viewBox="0 0 480 480" fill="none">
  <defs>
    <linearGradient id="bg" x1="0%" y1="0%" x2="100%" y2="100%">
      <stop offset="0%" stop-color="#14b8a6" stop-opacity="0.18"/>
      <stop offset="100%" stop-color="#0f766e" stop-opacity="0.08"/>
    </linearGradient>
    <linearGradient id="accent" x1="0%" y1="0%" x2="0%" y2="100%">
      <stop offset="0%" stop-color="#5eead4"/>
      <stop offset="100%" stop-color="#14b8a6"/>
    </linearGradient>
  </defs>
  <rect width="480" height="480" rx="32" fill="url(#bg)"/>
  <!-- DNA helix -->
  <path d="M300 80c-20 40-20 80 0 120s20 80 0 120" stroke="url(#accent)" stroke-width="8" stroke-linecap="round" fill="none" opacity="0.7"/>
  <path d="M340 80c20 40 20 80 0 120s-20 80 0 120" stroke="url(#accent)" stroke-width="8" stroke-linecap="round" fill="none" opacity="0.5"/>
  <line x1="305" y1="110" x2="335" y2="130" stroke="#5eead4" stroke-width="4" opacity="0.6"/>
  <line x1="305" y1="170" x2="335" y2="190" stroke="#5eead4" stroke-width="4" opacity="0.6"/>
  <line x1="305" y1="230" x2="335" y2="250" stroke="#5eead4" stroke-width="4" opacity="0.6"/>
  <!-- Microscope -->
  <rect x="88" y="300" width="120" height="12" rx="6" fill="url(#accent)" opacity="0.8"/>
  <rect x="138" y="180" width="20" height="120" rx="10" fill="url(#accent)" opacity="0.65"/>
  <circle cx="148" cy="165" r="28" stroke="url(#accent)" stroke-width="10" fill="none" opacity="0.75"/>
  <path d="M148 193v40" stroke="url(#accent)" stroke-width="8" stroke-linecap="round"/>
  <ellipse cx="148" cy="250" rx="36" ry="14" fill="#14b8a6" opacity="0.25"/>
  <!-- Leaf / agriculture -->
  <path d="M200 120c40-30 90-10 90 50c0 50-40 80-90 60c-30-14-40-50-20-80c10-16 10-22 20-30z" fill="#14b8a6" opacity="0.35"/>
  <path d="M245 145c0 30-15 55-35 70" stroke="#5eead4" stroke-width="5" stroke-linecap="round" opacity="0.6"/>
  <!-- Data chart -->
  <rect x="60" y="340" width="180" height="100" rx="16" fill="#fff" fill-opacity="0.04" stroke="#14b8a6" stroke-opacity="0.3"/>
  <rect x="85" y="390" width="24" height="30" rx="4" fill="url(#accent)" opacity="0.7"/>
  <rect x="125" y="365" width="24" height="55" rx="4" fill="url(#accent)" opacity="0.85"/>
  <rect x="165" y="350" width="24" height="70" rx="4" fill="url(#accent)"/>
  <rect x="205" y="375" width="24" height="45" rx="4" fill="url(#accent)" opacity="0.6"/>
</svg>
